<svg xmlns="http://www.w3.org/2000/svg" xmlns:xlink="http://www.w3.org/1999/xlink" width="717.872" height="180.771" viewBox="0 0 717.872 180.771">
  <defs>
    <clipPath id="clip-path">
      <path id="Tracé_79" data-name="Tracé 79" d="M826.083,521.47a3.514,3.514,0,0,1,3.228,1.638,3.317,3.317,0,0,1-2.153,4.959,7.209,7.209,0,0,1-1.264.094q-4.7.011-9.4.005-4.788,0-9.574,0a3.476,3.476,0,0,1-3-1.266,3.285,3.285,0,0,1-.416-3.436,3.335,3.335,0,0,1,3.348-1.995c3.445-.025,6.89-.008,10.335-.008,2.965,0,5.93-.018,8.9.009m-33.464-59.845a.733.733,0,0,1,.051-.137c.017.021.034.042.052.062l-.057.14c-.016-.022-.048-.046-.046-.065M850.2,438.534a42.737,42.737,0,0,1-4.655.035q-27.958,0-55.915,0a2.954,2.954,0,0,0-1.92.48,3.558,3.558,0,0,0-1.355,4.045c.459,1.42.952,2.831,1.459,4.235.821,2.276,1.5,4.6,2.443,6.834.576,2.417,1.682,4.667,2.173,7.134l-2.61-3.965a10.745,10.745,0,0,0-1.257-1.971c-1.058-1.711-2.069-3.452-3.133-5.16-.86-1.382-1.783-2.723-2.651-4.1-1.222-1.934-2.4-3.894-3.63-5.822a3.221,3.221,0,0,0-2.729-1.7q-10.216-.015-20.433-.009H745.42a2.289,2.289,0,0,0-1.4.508c-1.791,1.339-2.006,3.5-.487,5.438,2.019,2.576,4.069,5.127,6.116,7.682,1.48,1.847,2.974,3.681,4.462,5.522.159.23.3.471.476.689q13.077,16.437,26.157,32.868,9.625,12.094,19.266,24.175c.473.591.627,1.017-.11,1.459a2.232,2.232,0,0,0-.373.343,10.452,10.452,0,0,0,5.837,17.95c.77.07.994.329.993,1.127q-.04,28.512-.033,57.024a11.05,11.05,0,0,0,1.586,6.043c.466.745,1.035,1.426,1.594,2.186a.616.616,0,0,1,.1.077c.058.06.108.127.169.182h0l0,0,0,0,.011.007.01.008c.031.023.06.045.089.07s.078.071.115.108l.048.046a2.758,2.758,0,0,1,.734.394,9.844,9.844,0,0,0,11.741-.222,1.755,1.755,0,0,1,.345-.214q.027-.016.054-.03a.867.867,0,0,1,.081-.053l.005-.006c.041-.04.079-.084.119-.126.07-.075.145-.147.215-.221a1.334,1.334,0,0,1,.174-.153l0-.005a11.525,11.525,0,0,0,3.164-8.459c-.052-18.726-.025-37.452-.025-56.179,0-.282.021-.567-.006-.847-.045-.453.11-.656.594-.7a8.542,8.542,0,0,0,1.915-.325,10.777,10.777,0,0,0,7.1-7.039,10.39,10.39,0,0,0-2.89-10.752c-1.155-1.023-1.1-.757-.147-1.953q11.6-14.583,23.21-29.154,11.421-14.345,22.834-28.7c1.175-1.477,2.425-2.9,3.471-4.476a47.8,47.8,0,0,0,3.1-3.79c1.388-1.743,2.872-3.412,4.106-5.27a3.218,3.218,0,0,0,.055-3.6A3.148,3.148,0,0,0,887,438.55c-7.761.039-15.523.06-23.282-.013a3.8,3.8,0,0,0-3.517,2.231.334.334,0,0,0-.248.341c-.031.055-.061.111-.092.168a.351.351,0,0,0-.25.341c-.031.051-.061.1-.092.156a.332.332,0,0,0-.252.351q-3.634,5.09-7.034,10.337-1.207,1.684-2.414,3.368l-.12-.067q.228-.885.458-1.772c.645-2.158,1.319-4.309,1.925-6.478.469-1.68,1.08-3.321,1.39-5.045a3.442,3.442,0,0,0-3.033-3.947,2.073,2.073,0,0,0-.236.013" fill="none"/>
    </clipPath>
    <linearGradient id="linear-gradient" x1="-3.236" y1="3.071" x2="-3.231" y2="3.071" gradientUnits="objectBoundingBox">
      <stop offset="0" stop-color="#02a9dc"/>
      <stop offset="0.6" stop-color="#02a7d9"/>
      <stop offset="0.937" stop-color="#02a1d1"/>
      <stop offset="1" stop-color="#03a0cf"/>
    </linearGradient>
    <clipPath id="clip-path-2">
      <path id="Tracé_80" data-name="Tracé 80" d="M880.541,476.416a12.836,12.836,0,0,0-8.835,3.892,3.6,3.6,0,0,0-.235,5.04,3.287,3.287,0,0,0,4.7.311c.316-.236.618-.492.917-.749a5.919,5.919,0,0,1,7.477-.025,7.081,7.081,0,0,1,1.948,7.926,4.227,4.227,0,0,0,.683,4.43,15.888,15.888,0,0,1,1.636,2.256,10.532,10.532,0,0,1-.006,10.665,8.724,8.724,0,0,1-7.181,4.706,9.359,9.359,0,0,1-4.687-.827,3.466,3.466,0,0,0-5.124,2.518,13.026,13.026,0,0,1-1.537,3.819,9.268,9.268,0,0,1-11.914,3.207,26.736,26.736,0,0,1-2.929-2.144,3.151,3.151,0,0,0-2.361-.691,3.393,3.393,0,0,0-2.874,2.322,3.544,3.544,0,0,0,.92,3.819,15.535,15.535,0,0,0,11.39,4.927,14.9,14.9,0,0,0,3.116-.291,15.974,15.974,0,0,0,10.871-8.036c.959-1.647.9-1.68,2.795-1.439l.084.009a16.134,16.134,0,0,0,15.5-8.481,19.286,19.286,0,0,0,2.055-5.954,15.581,15.581,0,0,0,.091-5.307,17.4,17.4,0,0,0-3.166-7.84,1.436,1.436,0,0,1-.253-1.269,13.975,13.975,0,0,0-.13-6.534,13.574,13.574,0,0,0-5-7.637,12.278,12.278,0,0,0-7.6-2.628c-.118,0-.236,0-.355,0" fill="none"/>
    </clipPath>
    <linearGradient id="linear-gradient-2" x1="-11.669" y1="8.668" x2="-11.655" y2="8.668" xlink:href="#linear-gradient"/>
    <clipPath id="clip-path-3">
      <path id="Tracé_81" data-name="Tracé 81" d="M744.879,480.133a11.982,11.982,0,0,0-4.074,2.681,16.239,16.239,0,0,0-4.979,11.831,19.109,19.109,0,0,0,.626,4.685,17.472,17.472,0,0,0,4.312,7.749,15.081,15.081,0,0,0,6.151,3.913.8.8,0,0,1,.628.924,11.65,11.65,0,0,0,.379,3.1,17.007,17.007,0,0,0,8.1,11.38,14.218,14.218,0,0,0,7.51,1.973,13.838,13.838,0,0,0,7.719-2.417,12.519,12.519,0,0,0,4.828-5.525,3.452,3.452,0,0,0-4.432-4.331,5.672,5.672,0,0,0-2.322,2.159,7.638,7.638,0,0,1-9.494,2.156,9.917,9.917,0,0,1-5.141-10.839c.454-2.344-.823-4.791-3.473-4.91a7.844,7.844,0,0,1-4.91-2.027,9.85,9.85,0,0,1-3.5-7.162,8.9,8.9,0,0,1,3.238-7.883c.634-.509,1.372-.886,2.031-1.367a3.509,3.509,0,0,0,1.057-4.456,3.367,3.367,0,0,0-2.982-1.871,3.625,3.625,0,0,0-1.266.235" fill="none"/>
    </clipPath>
    <linearGradient id="linear-gradient-3" x1="-11.616" y1="9.945" x2="-11.6" y2="9.945" xlink:href="#linear-gradient"/>
    <clipPath id="clip-path-4">
      <path id="Tracé_82" data-name="Tracé 82" d="M876.867,538.627a3.443,3.443,0,1,0,3.473-3.53h-.067a3.572,3.572,0,0,0-3.406,3.53" fill="none"/>
    </clipPath>
    <linearGradient id="linear-gradient-4" x1="-90.875" y1="55.72" x2="-90.771" y2="55.72" xlink:href="#linear-gradient"/>
    <clipPath id="clip-path-5">
      <path id="Tracé_83" data-name="Tracé 83" d="M762.661,497.2a3.508,3.508,0,0,0,3.468,3.544,3.528,3.528,0,0,0,.03-7.052q-.063,0-.126,0a3.541,3.541,0,0,0-3.372,3.511" fill="none"/>
    </clipPath>
    <linearGradient id="linear-gradient-5" x1="-79.229" y1="59.928" x2="-79.125" y2="59.928" xlink:href="#linear-gradient"/>
    <clipPath id="clip-path-6">
      <path id="Tracé_84" data-name="Tracé 84" d="M769.392,538.624a3.443,3.443,0,1,0,6.883-.018,3.573,3.573,0,0,0-3.407-3.511h-.053a3.594,3.594,0,0,0-3.423,3.53" fill="none"/>
    </clipPath>
    <linearGradient id="linear-gradient-6" x1="-80.124" y1="55.893" x2="-80.019" y2="55.893" xlink:href="#linear-gradient"/>
  </defs>
  <g id="Groupe_103" data-name="Groupe 103" transform="translate(9625.643 2376.479)">
    <path id="Tracé_73" data-name="Tracé 73" d="M179.357,495.2h17.709l29.16,50.464h1.065l29.16-50.464h17.842v95.335H256.451v-47l1.065-15.978h-1.065l-24.234,42.741H221.432l-24.366-42.741H196l1.065,15.978v47H179.357Z" transform="translate(-9805 -2815)" fill="#1babde"/>
    <path id="Tracé_74" data-name="Tracé 74" d="M310.51,587.336l-27.429-62.048h19.84l16.51,39.545h.932l15.845-39.545h19.44l-40.877,94H296Z" transform="translate(-9805 -2815)" fill="#1babde"/>
    <path id="Tracé_75" data-name="Tracé 75" d="M449.119,575.219A47.392,47.392,0,0,1,432.475,588.2a53.168,53.168,0,0,1-41.21.6,48.348,48.348,0,0,1-26.3-26.3,51.88,51.88,0,0,1,0-39.279,48.35,48.35,0,0,1,26.3-26.3,50.186,50.186,0,0,1,19.773-3.861,47.99,47.99,0,0,1,20.172,3.994,46.951,46.951,0,0,1,15.512,11.584l-12.649,12.25a33.883,33.883,0,0,0-9.787-7.856,27.655,27.655,0,0,0-13.115-2.929,33.571,33.571,0,0,0-12.516,2.33,30.294,30.294,0,0,0-10.186,6.591,31.081,31.081,0,0,0-6.857,10.319,37.36,37.36,0,0,0,0,27.029,31.035,31.035,0,0,0,6.857,10.32,30.232,30.232,0,0,0,10.186,6.59,33.512,33.512,0,0,0,12.516,2.33,29.959,29.959,0,0,0,14.18-3.261,34.86,34.86,0,0,0,10.985-9.254Z" transform="translate(-9805 -2815)" fill="#1babde"/>
    <rect id="Rectangle_493" data-name="Rectangle 493" width="17.442" height="95.335" transform="translate(-9344.963 -2319.804)" fill="#1babde"/>
    <path id="Tracé_76" data-name="Tracé 76" d="M553.509,574.819a36.546,36.546,0,0,1-12.183,12.917q-7.657,4.923-18.708,4.927a35.93,35.93,0,0,1-13.781-2.6A32.863,32.863,0,0,1,490.6,571.823a36.29,36.29,0,0,1-2.6-13.914,35.686,35.686,0,0,1,2.53-13.38A33.772,33.772,0,0,1,508.3,525.953a32.786,32.786,0,0,1,13.648-2.795,35.546,35.546,0,0,1,13.981,2.6,28.5,28.5,0,0,1,10.251,7.191,30.965,30.965,0,0,1,6.259,10.851,41.958,41.958,0,0,1,2.131,13.58v1.6a8.86,8.86,0,0,0-.135,1.466,7.538,7.538,0,0,0-.132,1.465H505.176a18.282,18.282,0,0,0,2.2,6.855,16.57,16.57,0,0,0,4.128,4.795,16,16,0,0,0,5.393,2.795,20.98,20.98,0,0,0,5.991.865,16.99,16.99,0,0,0,9.92-2.728A19.93,19.93,0,0,0,539,567.629Zm-15.845-25.3a11.328,11.328,0,0,0-1.132-3.86,13.621,13.621,0,0,0-2.929-3.995,15.321,15.321,0,0,0-4.793-3.063,17.721,17.721,0,0,0-6.857-1.2A15.984,15.984,0,0,0,512.1,540.6a16.874,16.874,0,0,0-5.992,8.922Z" transform="translate(-9805 -2815)" fill="#1babde"/>
    <path id="Tracé_77" data-name="Tracé 77" d="M606.635,583.607H605.57A29.451,29.451,0,0,1,598.18,590q-4.329,2.661-11.118,2.663A27.022,27.022,0,0,1,577.541,591a24.715,24.715,0,0,1-7.789-4.594,20.5,20.5,0,0,1-5.192-7.056,21.718,21.718,0,0,1-1.864-9.055,20.389,20.389,0,0,1,2-9.12,20.758,20.758,0,0,1,5.591-6.991,25.246,25.246,0,0,1,8.455-4.46,35.093,35.093,0,0,1,10.586-1.532,45.863,45.863,0,0,1,10.519,1,51.2,51.2,0,0,1,6.791,2.064v-2a10.657,10.657,0,0,0-4.128-8.588,15.607,15.607,0,0,0-10.253-3.4q-9.056,0-15.311,7.589l-12.65-8.654q10.386-13.047,28.361-13.049,15.18,0,23.169,7.124t7.988,21.1v39.146H606.635Zm0-19.573a36.216,36.216,0,0,0-6.325-2.33,27.781,27.781,0,0,0-7.123-.865q-6.261,0-9.654,2.729a8.327,8.327,0,0,0-3.4,6.724,7.538,7.538,0,0,0,3.262,6.391,12.365,12.365,0,0,0,7.523,2.4,16.042,16.042,0,0,0,11.385-4.594,14.858,14.858,0,0,0,4.327-10.452" transform="translate(-9805 -2815)" fill="#1babde"/>
    <path id="Tracé_78" data-name="Tracé 78" d="M654.034,533.81H655.1a22.125,22.125,0,0,1,8.255-7.79,24.15,24.15,0,0,1,11.851-2.862,27.2,27.2,0,0,1,10.785,2,19.746,19.746,0,0,1,7.656,5.659,25.033,25.033,0,0,1,4.527,8.788,39.756,39.756,0,0,1,1.531,11.384v39.546H682.262V553.117q0-7.056-3.129-10.453t-9.121-3.4a12.727,12.727,0,0,0-6.325,1.531,14.756,14.756,0,0,0-4.66,4.128,18.683,18.683,0,0,0-2.93,6.125,27.545,27.545,0,0,0-1,7.523v31.956H637.656V525.288h16.378Z" transform="translate(-9805 -2815)" fill="#1babde"/>
    <g id="Groupe_92" data-name="Groupe 92" transform="translate(-9805 -2815)" clip-path="url(#clip-path)">
      <rect id="Rectangle_495" data-name="Rectangle 495" width="218.532" height="212.019" transform="matrix(0.5, -0.866, 0.866, 0.5, 669.919, 563.388)" fill="url(#linear-gradient)"/>
    </g>
    <g id="Groupe_94" data-name="Groupe 94" transform="translate(-9805 -2815)" clip-path="url(#clip-path-2)">
      <rect id="Rectangle_496" data-name="Rectangle 496" width="71.782" height="68.923" transform="matrix(0.5, -0.866, 0.866, 0.5, 825.737, 517.966)" fill="url(#linear-gradient-2)"/>
    </g>
    <g id="Groupe_96" data-name="Groupe 96" transform="translate(-9805 -2815)" clip-path="url(#clip-path-3)">
      <rect id="Rectangle_497" data-name="Rectangle 497" width="62.416" height="59.594" transform="matrix(0.5, -0.866, 0.866, 0.5, 714.818, 516.284)" fill="url(#linear-gradient-3)"/>
    </g>
    <g id="Groupe_98" data-name="Groupe 98" transform="translate(-9805 -2815)" clip-path="url(#clip-path-4)">
      <rect id="Rectangle_498" data-name="Rectangle 498" width="9.634" height="9.568" transform="translate(873.774 540.435) rotate(-60)" fill="url(#linear-gradient-4)"/>
    </g>
    <g id="Groupe_100" data-name="Groupe 100" transform="translate(-9805 -2815)" clip-path="url(#clip-path-5)">
      <rect id="Rectangle_499" data-name="Rectangle 499" width="9.609" height="9.588" transform="matrix(0.5, -0.866, 0.866, 0.5, 759.535, 498.979)" fill="url(#linear-gradient-5)"/>
    </g>
    <g id="Groupe_102" data-name="Groupe 102" transform="translate(-9805 -2815)" clip-path="url(#clip-path-6)">
      <rect id="Rectangle_500" data-name="Rectangle 500" width="9.586" height="9.539" transform="matrix(0.5, -0.866, 0.866, 0.5, 766.303, 540.392)" fill="url(#linear-gradient-6)"/>
    </g>
  </g>
</svg>
