<svg xmlns="http://www.w3.org/2000/svg" width="717.872" height="180.771" viewBox="0 0 717.872 180.771">
  <g id="Groupe_104" data-name="Groupe 104" transform="translate(8533.643 2376.479)">
    <path id="Tracé_61" data-name="Tracé 61" d="M1271.357,495.2h17.709l29.16,50.464h1.065l29.16-50.464h17.842v95.335h-17.842v-47l1.065-15.978h-1.065l-24.234,42.741h-10.785l-24.366-42.741H1288l1.065,15.978v47h-17.709Z" transform="translate(-9805 -2815)" fill="#fff"/>
    <path id="Tracé_62" data-name="Tracé 62" d="M1402.51,587.336l-27.428-62.048h19.839l16.511,39.545h.932l15.845-39.545h19.44l-40.877,94H1388Z" transform="translate(-9805 -2815)" fill="#fff"/>
    <path id="Tracé_63" data-name="Tracé 63" d="M1541.119,575.219a47.405,47.405,0,0,1-16.645,12.982,53.166,53.166,0,0,1-41.209.6,48.339,48.339,0,0,1-26.3-26.3,51.867,51.867,0,0,1,0-39.279,48.341,48.341,0,0,1,26.3-26.3,50.181,50.181,0,0,1,19.772-3.861,47.994,47.994,0,0,1,20.173,3.994,46.962,46.962,0,0,1,15.512,11.584l-12.65,12.25a33.879,33.879,0,0,0-9.786-7.856,27.661,27.661,0,0,0-13.115-2.929,33.572,33.572,0,0,0-12.517,2.33,30.29,30.29,0,0,0-10.185,6.591,31.1,31.1,0,0,0-6.858,10.319,37.375,37.375,0,0,0,0,27.029,31.054,31.054,0,0,0,6.858,10.32,30.228,30.228,0,0,0,10.185,6.59,33.513,33.513,0,0,0,12.517,2.33,29.965,29.965,0,0,0,14.18-3.261,34.882,34.882,0,0,0,10.985-9.254Z" transform="translate(-9805 -2815)" fill="#fff"/>
    <rect id="Rectangle_492" data-name="Rectangle 492" width="17.441" height="95.335" transform="translate(-8252.963 -2319.804)" fill="#fff"/>
    <path id="Tracé_64" data-name="Tracé 64" d="M1645.509,574.819a36.547,36.547,0,0,1-12.183,12.917q-7.658,4.923-18.708,4.927a35.925,35.925,0,0,1-13.78-2.6,32.861,32.861,0,0,1-18.242-18.242,36.292,36.292,0,0,1-2.6-13.914,35.686,35.686,0,0,1,2.53-13.38,33.772,33.772,0,0,1,17.776-18.576,32.785,32.785,0,0,1,13.648-2.795,35.542,35.542,0,0,1,13.981,2.6,28.5,28.5,0,0,1,10.251,7.191,30.965,30.965,0,0,1,6.259,10.851,41.957,41.957,0,0,1,2.131,13.58v1.6a8.866,8.866,0,0,0-.135,1.466,7.548,7.548,0,0,0-.132,1.465h-49.132a18.264,18.264,0,0,0,2.2,6.855,16.55,16.55,0,0,0,4.127,4.795,16,16,0,0,0,5.393,2.795,20.987,20.987,0,0,0,5.992.865,16.994,16.994,0,0,0,9.92-2.728,19.937,19.937,0,0,0,6.191-6.858Zm-15.845-25.3a11.327,11.327,0,0,0-1.132-3.86,13.621,13.621,0,0,0-2.929-3.995,15.321,15.321,0,0,0-4.793-3.063,17.722,17.722,0,0,0-6.857-1.2,15.981,15.981,0,0,0-9.853,3.194,16.875,16.875,0,0,0-5.993,8.922Z" transform="translate(-9805 -2815)" fill="#fff"/>
    <path id="Tracé_65" data-name="Tracé 65" d="M1698.635,583.607h-1.065a29.451,29.451,0,0,1-7.39,6.392q-4.329,2.661-11.118,2.663a27.022,27.022,0,0,1-9.521-1.665,24.716,24.716,0,0,1-7.789-4.594,20.5,20.5,0,0,1-5.192-7.056,21.718,21.718,0,0,1-1.864-9.055,20.388,20.388,0,0,1,2-9.12,20.758,20.758,0,0,1,5.591-6.991,25.246,25.246,0,0,1,8.455-4.46,35.093,35.093,0,0,1,10.586-1.532,45.862,45.862,0,0,1,10.519,1,51.2,51.2,0,0,1,6.791,2.064v-2a10.657,10.657,0,0,0-4.128-8.588,15.607,15.607,0,0,0-10.253-3.4q-9.055,0-15.311,7.589l-12.65-8.654q10.386-13.047,28.361-13.049,15.18,0,23.169,7.124t7.988,21.1v39.146h-17.176Zm0-19.573a36.216,36.216,0,0,0-6.325-2.33,27.781,27.781,0,0,0-7.123-.865q-6.261,0-9.654,2.729a8.327,8.327,0,0,0-3.4,6.724,7.538,7.538,0,0,0,3.262,6.391,12.365,12.365,0,0,0,7.523,2.4,16.042,16.042,0,0,0,11.385-4.594,14.858,14.858,0,0,0,4.327-10.452" transform="translate(-9805 -2815)" fill="#fff"/>
    <path id="Tracé_66" data-name="Tracé 66" d="M1746.034,533.81h1.065a22.125,22.125,0,0,1,8.255-7.79,24.151,24.151,0,0,1,11.851-2.862,27.2,27.2,0,0,1,10.785,2,19.745,19.745,0,0,1,7.656,5.659,25.034,25.034,0,0,1,4.527,8.788,39.756,39.756,0,0,1,1.531,11.384v39.546h-17.442V553.117q0-7.056-3.129-10.453t-9.121-3.4a12.727,12.727,0,0,0-6.325,1.531,14.755,14.755,0,0,0-4.66,4.128,18.68,18.68,0,0,0-2.93,6.125,27.542,27.542,0,0,0-1,7.523v31.956h-17.443V525.288h16.378Z" transform="translate(-9805 -2815)" fill="#fff"/>
    <path id="Tracé_67" data-name="Tracé 67" d="M1925.366,517.148c-1.155-1.023-1.1-.757-.147-1.953q11.6-14.585,23.21-29.154,11.42-14.344,22.834-28.695c1.174-1.478,2.424-2.9,3.47-4.477a47.458,47.458,0,0,0,3.1-3.79c1.387-1.742,2.872-3.412,4.106-5.269a3.22,3.22,0,0,0,.054-3.6A3.147,3.147,0,0,0,1979,438.55c-7.761.039-15.522.06-23.282-.012a3.8,3.8,0,0,0-3.517,2.231.334.334,0,0,0-.248.34l-.091.168a.35.35,0,0,0-.25.341l-.093.156a.333.333,0,0,0-.251.352q-3.634,5.088-7.035,10.337-1.207,1.683-2.414,3.368l-.119-.067q.228-.887.457-1.772c.645-2.159,1.319-4.309,1.925-6.479.47-1.68,1.079-3.321,1.391-5.045.373-2.068-1.5-4.13-3.269-3.934a42.757,42.757,0,0,1-4.656.035q-27.957,0-55.914,0a2.961,2.961,0,0,0-1.921.479,3.562,3.562,0,0,0-1.355,4.046c.46,1.42.952,2.83,1.459,4.235.821,2.275,1.505,4.6,2.443,6.833.576,2.417,1.682,4.667,2.173,7.134l-2.61-3.964a10.65,10.65,0,0,0-1.257-1.971c-1.058-1.712-2.069-3.453-3.132-5.161-.86-1.381-1.784-2.722-2.652-4.1-1.221-1.934-2.4-3.894-3.63-5.822a3.219,3.219,0,0,0-2.729-1.7q-15.5-.024-31-.01a2.288,2.288,0,0,0-1.4.509c-1.791,1.338-2.005,3.5-.487,5.438,2.02,2.575,4.07,5.127,6.116,7.682,1.48,1.847,2.974,3.681,4.462,5.521.159.231.3.472.477.69q13.076,16.436,26.156,32.868,9.625,12.093,19.267,24.175c.472.59.626,1.017-.11,1.458a2.2,2.2,0,0,0-.373.344,10.45,10.45,0,0,0,5.836,17.949c.77.071.994.329.993,1.128q-.04,28.512-.033,57.024a11.049,11.049,0,0,0,1.586,6.042c.466.745,1.035,1.426,1.595,2.187a.606.606,0,0,1,.1.077c.058.059.108.127.17.182.017.015.025.01-.005,0a.118.118,0,0,1,.026.018c.031.022.06.045.089.069s.078.071.116.108l.047.047a2.717,2.717,0,0,1,.734.394,9.846,9.846,0,0,0,11.741-.222,1.765,1.765,0,0,1,.346-.214c.018-.011.036-.022.054-.031a.926.926,0,0,1,.08-.053l.005,0c.041-.041.079-.084.119-.127.07-.075.145-.146.216-.221a1.337,1.337,0,0,1,.173-.153l0,0a11.523,11.523,0,0,0,3.164-8.46c-.052-18.726-.025-37.452-.025-56.178,0-.283.021-.567-.006-.847-.044-.454.11-.657.594-.7a8.676,8.676,0,0,0,1.916-.325,10.779,10.779,0,0,0,7.1-7.04,10.39,10.39,0,0,0-2.889-10.751m-40.7-55.458c-.016-.022-.049-.046-.045-.064a.7.7,0,0,1,.05-.137l.052.062-.057.139m34.493,66.377a7.114,7.114,0,0,1-1.264.094q-4.7.012-9.4.005-4.786,0-9.573,0a3.477,3.477,0,0,1-3-1.266,3.285,3.285,0,0,1-.417-3.436,3.336,3.336,0,0,1,3.348-2c3.445-.024,6.89-.008,10.335-.008,2.965,0,5.931-.018,8.9.009a3.518,3.518,0,0,1,3.229,1.639,3.318,3.318,0,0,1-2.154,4.958" transform="translate(-9805 -2815)" fill="#fff"/>
    <path id="Tracé_68" data-name="Tracé 68" d="M1989.044,502.319a17.386,17.386,0,0,0-3.166-7.841,1.428,1.428,0,0,1-.252-1.267,14,14,0,0,0-.131-6.536,13.578,13.578,0,0,0-5-7.636,12.267,12.267,0,0,0-7.954-2.623,12.836,12.836,0,0,0-8.835,3.892,3.6,3.6,0,0,0-.235,5.04,3.286,3.286,0,0,0,4.7.311c.317-.236.619-.492.918-.749a5.92,5.92,0,0,1,7.477-.025,7.081,7.081,0,0,1,1.948,7.926,4.227,4.227,0,0,0,.683,4.43,15.736,15.736,0,0,1,1.636,2.256,10.53,10.53,0,0,1-.006,10.665,8.724,8.724,0,0,1-7.181,4.706,9.343,9.343,0,0,1-4.686-.827,3.466,3.466,0,0,0-5.124,2.518,13.082,13.082,0,0,1-1.537,3.819,9.269,9.269,0,0,1-11.915,3.207,26.7,26.7,0,0,1-2.929-2.144,3.151,3.151,0,0,0-2.361-.691,3.392,3.392,0,0,0-2.874,2.322,3.546,3.546,0,0,0,.92,3.82,15.545,15.545,0,0,0,11.391,4.926,14.9,14.9,0,0,0,3.116-.291,15.978,15.978,0,0,0,10.871-8.036c.958-1.647.9-1.68,2.794-1.439.028,0,.056.007.084.009a16.132,16.132,0,0,0,15.5-8.481,19.23,19.23,0,0,0,2.055-5.954,15.553,15.553,0,0,0,.091-5.307" transform="translate(-9805 -2815)" fill="#fff"/>
    <path id="Tracé_69" data-name="Tracé 69" d="M1863.642,516.1a5.675,5.675,0,0,0-2.322,2.16,7.638,7.638,0,0,1-9.494,2.155,9.915,9.915,0,0,1-5.14-10.839c.453-2.344-.823-4.792-3.474-4.91a7.839,7.839,0,0,1-4.909-2.027,9.851,9.851,0,0,1-3.5-7.162,8.9,8.9,0,0,1,3.238-7.883c.635-.508,1.373-.886,2.031-1.367a3.508,3.508,0,0,0,1.057-4.457,3.349,3.349,0,0,0-4.248-1.635,11.982,11.982,0,0,0-4.073,2.681,16.243,16.243,0,0,0-4.98,11.831,19.048,19.048,0,0,0,.627,4.685,17.478,17.478,0,0,0,4.311,7.75,15.082,15.082,0,0,0,6.151,3.911.8.8,0,0,1,.628.925,11.66,11.66,0,0,0,.379,3.1,17.005,17.005,0,0,0,8.095,11.379,14.2,14.2,0,0,0,7.51,1.972,13.836,13.836,0,0,0,7.719-2.415,12.527,12.527,0,0,0,4.828-5.526,3.452,3.452,0,0,0-4.432-4.331" transform="translate(-9805 -2815)" fill="#fff"/>
    <path id="Tracé_70" data-name="Tracé 70" d="M1972.341,535.1a3.54,3.54,0,1,0,3.407,3.593,3.566,3.566,0,0,0-3.407-3.593" transform="translate(-9805 -2815)" fill="#fff"/>
    <path id="Tracé_71" data-name="Tracé 71" d="M1858.128,500.744a3.528,3.528,0,0,0,.031-7.053,3.527,3.527,0,0,0-.031,7.053" transform="translate(-9805 -2815)" fill="#fff"/>
    <path id="Tracé_72" data-name="Tracé 72" d="M1864.868,535.095a3.587,3.587,0,0,0-3.476,3.529,3.443,3.443,0,1,0,6.883-.018,3.574,3.574,0,0,0-3.407-3.511" transform="translate(-9805 -2815)" fill="#fff"/>
  </g>
</svg>
